<svg xmlns="http://www.w3.org/2000/svg" width="584" height="584" viewBox="0 0 584.1 584.1"><style>.a{fill:#9B1B31;}.b{fill:#FFF;}</style><path d="M584.1 156.3c0 90.7 0 181.4 0 272.1 -0.2 0.9-0.4 1.9-0.4 2.8 -0.6 10.5-1 21.1-2 31.6 -1.2 12.9-3.1 25.8-8 37.8 -18.1 44.8-50.9 71.9-98.9 79.4 -13.8 2.2-28 2.5-42 3.7 -1.7 0.1-3.4 0.3-5.1 0.5 -90.5 0-181 0-271.5 0 -0.9-0.1-1.9-0.4-2.8-0.4 -10.7-0.7-21.4-1-32.1-2 -12.8-1.1-25.6-3.1-37.5-7.8 -44.9-18-72.1-50.7-79.7-98.8 -2.2-13.9-2.5-28.1-3.7-42.2 -0.1-1.7-0.3-3.4-0.5-5 0-90.5 0-181 0-271.5 0.2-2.3 0.5-4.7 0.6-7 0.4-14.6 1.6-29.2 4.1-43.6C8 86.3 15 68.6 26.9 53c17.4-22.9 39.5-38.8 67.6-45.9 17.7-4.5 35.7-6 53.9-6.5 2.4-0.1 4.9-0.4 7.3-0.6C246.4 0 337.1 0 427.8 0c0.9 0.1 1.9 0.4 2.8 0.4 10.7 0.7 21.4 1 32.1 2 12.7 1.1 25.4 3.1 37.2 7.7 42.6 16.9 69.6 47.4 79 92.7 3.2 15.5 4.3 31.2 4.7 47C583.6 152 583.9 154.1 584.1 156.3zM246.2 348.8c-5.8 1.2-11.5 1.7-17.3 0.6 -7.9-1.4-12.4-6.1-13.4-14.1 -0.8-6.4 0.2-12.6 2.2-18.5 4.4-13 9.3-25.9 14.1-38.8 3.2-8.7 6.8-17.3 8.1-26.6 1.3-10-3.6-18-12.9-20.7 -1.7-0.5-3.6-0.5-5.3-1 -4.4-1.3-7.3 0.5-9.3 4.3 -4.1 7.5-8.2 15-12.3 22.5 -9.2 16.8-18 33.9-27.6 50.5 -4 6.9-9.4 13.1-14.5 19.3 -1.7 2.1-4.4 3.7-6.9 4.9 -3.9 1.8-6.2 0.2-6.1-4 0.1-3.2 0.6-6.4 1.4-9.5 3.3-12.7 7-25.3 10.1-38 1.7-6.9 2.7-14 1.1-21.2 -1.9-8.3-8.6-11.4-16-7.1 -3.4 2-6.7 4.5-9.1 7.6 -5.9 7.7-11.7 15.7-16.8 24 -8.5 13.9-16.1 28.2-24.5 42.1 -3.9 6.4-8.5 12.3-13.2 18.2 -1.8 2.2-4.5 3.8-7.1 5 -3.6 1.7-5.8 0.1-5.7-3.9 0-2.3 0.2-4.6 0.8-6.8 4.5-15.4 9-30.8 13.6-46.2 4.4-14.6 9.9-29 11.9-44.2 1.8-13.9-2.7-31-25.3-33.8 -3.9-0.5-8-0.1-12.5-0.1 7.1 8.8 8.2 18.4 7.1 28.3 -0.7 7-1.7 14-3.7 20.7 -4.7 16.1-10.1 32-15.2 48 -3.5 11-6.6 22-6.1 33.7 0.5 13.8 11.4 23.3 25.1 21.7 7.7-0.9 14.5-3.8 20.6-8.4 7.3-5.5 13.4-12.2 18.3-19.8 5.7-8.8 11-18 16.4-27 0.5-0.7 0.9-1.5 1.7-2.7 0 3.7 0 6.7 0 9.8 0.1 7.3 0.9 14.4 4 21.1 3.7 7.9 9.9 11 18.5 10 11.8-1.4 21.2-7.2 28.8-15.8 5.8-6.6 10.7-14 15.9-21.1 0.4-0.6 0.8-1.2 1.5-2.2 -0.3 4.8-0.7 8.8-0.6 12.9 0 4.1 0.4 8.2 0.9 12.2 2.6 19.5 15 30.7 34.6 31.5 10.9 0.4 21.4-1.6 31.6-5.2 1.6-0.6 2.9-0.6 4.5 0.4 4.6 2.9 9.7 4.3 15.1 4.7 16.1 1 30.8-3.3 44.4-11.8 12.5-7.8 22.8-18 31.9-29.5 0.7-0.9 1.4-1.8 2.4-3 -0.4 3.3-0.9 6.1-1 8.8 -0.3 8.3 0.7 16.3 4.7 23.7 5.1 9.6 16.7 14 27.1 11.6 -0.6-1.8-1.4-3.5-1.9-5.3 -1.8-6.5-1.1-13-0.2-19.5 2.4-16.8 6.9-33.1 12.7-49 12.2-33.3 25.1-66.4 37.4-99.7 4.5-12.1 8.9-24.3 12.4-36.6 3.5-12.1-2.8-21.5-14.9-24 -1.6-0.3-3.2-0.2-4.8-0.5 -3.2-0.6-5.4 0.8-6.7 3.6 -2.4 5-5 9.8-6.8 15 -8.4 24.1-16.6 48.3-24.6 72.5 -7.8 23.6-16.7 46.7-29.8 67.9 -10.3 16.5-21.5 32.3-36.1 45.3 -6.8 6-14 11.5-23.2 13.4 -4.4 0.9-8.8 0.8-13-2 0.9-0.7 1.6-1.1 2.3-1.6 7.2-5.4 14.8-10.4 21.6-16.3 15.9-13.6 29.4-29.2 38.1-48.5 4.6-10.1 7.1-20.6 5.5-31.8 -1.6-11.2-8-17.8-19.1-19.4 -8.5-1.2-16.3 1.4-23.4 5.4 -27.1 15.4-46.4 38-58.7 66.5 -4.8 11.1-7.1 22.9-5.5 35.1C244.1 340.7 245.2 344.6 246.2 348.8zM381.1 433.8c3.7 7.2 9.5 12.1 17.3 14.6 7.2 2.3 14.5 1.8 21.8 0.8 16.2-2.1 31-8.4 44.4-17.6 40.6-28.1 66.6-66.5 79.6-113.9 4.5-16.5 6-33.3 2.3-50.2 -4-18.1-14-31.2-32.6-36.3 -13-3.6-25.4-1.8-37.3 4.2 -23.1 11.7-40.4 29.4-53.4 51.5 -6.9 11.7-11.4 24.2-12.7 37.8 -0.6 6.5-0.2 12.9 1.6 19.2 4.8 16.2 19.1 24.8 37.1 22.8 17.1-1.9 31.8-9 44.9-19.9 3.1-2.6 6-5.5 9.5-8.8 -0.6 1.4-0.8 2.2-1.2 2.9 -11.8 23.1-27.4 43.3-47.2 60.2 -15.6 13.3-32.8 24-53 29.2C395.3 431.9 388.4 432.5 381.1 433.8z" class="a"/><path d="M246.2 348.8c-0.9-4.2-2.1-8.2-2.6-12.2 -1.7-12.2 0.7-23.9 5.5-35.1 12.3-28.6 31.6-51.1 58.7-66.5 7.2-4.1 14.9-6.7 23.4-5.4 11.1 1.6 17.5 8.2 19.1 19.4 1.6 11.2-0.9 21.7-5.5 31.8 -8.7 19.3-22.2 34.9-38.1 48.5 -6.8 5.8-14.4 10.9-21.6 16.3 -0.7 0.5-1.4 1-2.3 1.6 4.2 2.8 8.6 2.9 13 2 9.1-2 16.4-7.4 23.2-13.4 14.6-13 25.9-28.8 36.1-45.3 13.2-21.2 22-44.3 29.8-67.9 8.1-24.2 16.3-48.4 24.6-72.5 1.8-5.2 4.5-10 6.8-15 1.3-2.8 3.5-4.1 6.7-3.6 1.6 0.3 3.2 0.2 4.8 0.5 12.1 2.5 18.3 11.9 14.9 24 -3.5 12.4-7.9 24.6-12.4 36.6 -12.4 33.3-25.2 66.4-37.4 99.7 -5.8 15.9-10.4 32.2-12.7 49 -0.9 6.5-1.6 13 0.2 19.5 0.5 1.8 1.3 3.5 1.9 5.3 -10.4 2.4-22-2-27.1-11.6 -4-7.5-5-15.5-4.7-23.7 0.1-2.7 0.6-5.4 1-8.8 -1 1.3-1.7 2.1-2.4 3 -9.1 11.5-19.3 21.7-31.9 29.5 -13.6 8.4-28.3 12.8-44.4 11.8 -5.4-0.4-10.5-1.7-15.1-4.7 -1.6-1-2.8-1-4.5-0.4 -10.2 3.5-20.7 5.6-31.6 5.2 -19.7-0.8-32.1-11.9-34.6-31.5 -0.5-4-0.8-8.1-0.9-12.2 0-4.1 0.4-8.1 0.6-12.9 -0.7 1-1.1 1.6-1.5 2.2 -5.3 7.1-10.1 14.5-15.9 21.1 -7.6 8.6-17 14.4-28.8 15.8 -8.6 1-14.8-2.2-18.5-10 -3.2-6.7-4-13.8-4-21.1 0-3 0-6 0-9.8 -0.8 1.2-1.2 2-1.7 2.7 -5.4 9-10.7 18.2-16.4 27 -4.9 7.6-10.9 14.4-18.3 19.8 -6.1 4.6-12.9 7.5-20.6 8.4 -13.7 1.6-24.6-7.8-25.1-21.7 -0.5-11.7 2.6-22.7 6.1-33.7 5.1-16 10.4-31.9 15.2-48 2-6.7 3-13.7 3.7-20.7 1-9.9 0-19.6-7.1-28.3 4.6 0 8.6-0.4 12.5 0.1 22.6 2.9 27.2 19.9 25.3 33.8 -2 15.2-7.4 29.6-11.9 44.2 -4.6 15.4-9.2 30.7-13.6 46.2 -0.6 2.2-0.8 4.5-0.8 6.8 -0.1 4 2.1 5.5 5.7 3.9 2.6-1.2 5.3-2.9 7.1-5 4.7-5.8 9.4-11.8 13.2-18.2 8.4-13.9 16-28.3 24.5-42.1 5.1-8.3 10.9-16.3 16.8-24 2.4-3.1 5.7-5.6 9.1-7.6 7.4-4.3 14.1-1.2 16 7.1 1.6 7.1 0.6 14.3-1.1 21.2 -3.1 12.7-6.8 25.3-10.1 38 -0.8 3.1-1.3 6.3-1.4 9.5 -0.2 4.2 2.2 5.8 6.1 4 2.5-1.2 5.1-2.8 6.9-4.9 5.1-6.2 10.5-12.4 14.5-19.3 9.6-16.6 18.5-33.6 27.6-50.5 4.1-7.5 8.3-15 12.3-22.5 2.1-3.8 4.9-5.6 9.3-4.3 1.7 0.5 3.6 0.5 5.3 1 9.3 2.7 14.2 10.7 12.9 20.7 -1.2 9.3-4.8 17.9-8.1 26.6 -4.8 12.9-9.7 25.8-14.1 38.8 -2 5.9-3 12.2-2.2 18.5 1 8 5.4 12.7 13.4 14.1C234.7 350.5 240.4 350 246.2 348.8zM276.3 335.4c0.5 0.3 1 0.5 1.5 0.8 6.3-4.9 12.8-9.5 18.8-14.7 14.7-12.8 27.3-27.5 35.6-45.4 2.9-6.1 5-12.5 4.9-19.4 0-7.6-5.4-11.2-12.2-7.7 -3.7 1.9-7.2 4.4-10.2 7.2 -17.2 16.6-29 36.5-35.1 59.6C277.9 322.1 277.3 328.8 276.3 335.4z" class="b"/><path d="M381.1 433.8c7.3-1.2 14.2-1.9 20.8-3.6 20.1-5.2 37.3-15.8 53-29.2 19.8-16.9 35.4-37.1 47.2-60.2 0.4-0.7 0.6-1.5 1.2-2.9 -3.5 3.3-6.4 6.2-9.5 8.8 -13 11-27.7 18.1-44.9 19.9 -18 2-32.2-6.6-37.1-22.8 -1.9-6.3-2.3-12.7-1.6-19.2 1.3-13.6 5.9-26.1 12.7-37.8 13-22.1 30.3-39.8 53.4-51.5 11.9-6 24.4-7.8 37.3-4.2 18.6 5.1 28.6 18.2 32.6 36.3 3.7 16.9 2.3 33.7-2.3 50.2 -13 47.3-39 85.8-79.6 113.9 -13.3 9.2-28.1 15.5-44.4 17.6 -7.2 0.9-14.6 1.4-21.8-0.8C390.6 445.8 384.9 441 381.1 433.8zM517.9 269.9c0.2-0.1 0.5-0.1 0.7-0.2 -1.1-4.7-1.8-9.7-3.6-14.2 -3.1-7.8-9.4-10.6-17.6-8.5 -6.9 1.8-12.6 5.8-17.7 10.5 -15.4 14.4-26 31.9-32.6 51.8 -3 9-4.8 18.2-3.4 27.7 1.6 10.2 8.2 15.1 18.2 12.6 4.9-1.2 9.7-3.4 14-6 10.4-6.4 18.3-15.4 25-25.4C510.8 303.5 517.3 287.7 517.9 269.9z" class="b"/><path d="M276.3 335.4c1.1-6.6 1.6-13.3 3.3-19.7 6.1-23.1 17.8-43 35.1-59.6 3-2.9 6.5-5.3 10.2-7.2 6.8-3.5 12.2 0.1 12.2 7.7 0 6.9-2.1 13.3-4.9 19.4 -8.3 17.9-20.8 32.6-35.6 45.4 -6 5.2-12.5 9.8-18.8 14.7C277.3 335.9 276.8 335.7 276.3 335.4z" class="a"/><path d="M517.9 269.9c-0.6 17.8-7.1 33.7-16.9 48.3 -6.7 10-14.6 19.1-25 25.4 -4.3 2.6-9.1 4.8-14 6 -10 2.6-16.6-2.3-18.2-12.6 -1.5-9.6 0.4-18.7 3.4-27.7 6.6-19.9 17.2-37.4 32.6-51.8 5.1-4.8 10.8-8.7 17.7-10.5 8.2-2.1 14.4 0.6 17.6 8.5 1.8 4.5 2.4 9.5 3.6 14.2C518.4 269.7 518.1 269.8 517.9 269.9z" class="a"/></svg>